<svg width="42" height="46" viewBox="0 0 42 46" fill="none" xmlns="http://www.w3.org/2000/svg">
<g clip-path="url(#clip0_2265_387)">
<path d="M33.6252 15.3484C33.6252 18.0351 33.0207 20.578 31.943 22.8443C30.9328 24.9689 29.5068 26.8503 27.7721 28.3787C27.7334 28.4129 27.694 28.4463 27.6547 28.4798C27.6097 28.5187 27.5648 28.5578 27.5194 28.5962C27.509 28.604 27.4988 28.6121 27.4884 28.6198C27.1154 28.9228 26.7185 29.1961 26.3014 29.4378C24.9644 30.2125 23.4188 30.6573 21.7697 30.6573C21.3582 30.6573 20.9561 30.6202 20.559 30.5667C20.5585 30.5666 20.5581 30.5664 20.5576 30.5663C20.5568 30.566 20.556 30.5657 20.5552 30.5655V42.1049C27.1142 41.1205 32.6106 38.5383 36.4802 33.8138C36.5361 33.7457 36.5957 33.6796 36.6507 33.6109C36.6641 33.5942 36.6768 33.577 36.6901 33.5601C36.8159 33.4007 36.9367 33.2385 37.059 33.0771C37.5843 32.3846 38.0718 31.6711 38.5093 30.9316C38.5927 30.7887 38.6737 30.6441 38.7537 30.499C38.8136 30.392 38.8725 30.2844 38.9304 30.1764C40.3477 27.4887 41.1681 24.4295 41.2297 21.1806C41.2298 21.1804 41.2299 21.1801 41.23 21.1799L41.2302 21.1795C41.232 21.0849 41.2397 20.9918 41.2402 20.8969C41.2396 20.7423 41.2371 20.5885 41.2334 20.4353C41.2055 19.2705 41.0902 18.1467 40.8953 17.0675C40.89 17.0392 40.8857 17.0105 40.8804 16.9822C40.8286 16.7023 40.765 16.4294 40.7029 16.1556C40.5342 15.437 40.3303 14.7325 40.0872 14.0467C40.0737 14.0089 40.0615 13.9705 40.0479 13.9328C39.9632 13.6985 39.8716 13.4677 39.7786 13.2377C39.7414 13.1461 39.7053 13.0538 39.6668 12.9629C39.5849 12.7687 39.4983 12.577 39.4106 12.3859C39.3517 12.2583 39.2925 12.1308 39.2311 12.0046C39.1539 11.8457 39.0743 11.6883 38.9932 11.5319C38.909 11.3701 38.8227 11.2095 38.7343 11.0504C38.6671 10.9291 38.5994 10.8082 38.5299 10.6885C38.4102 10.4834 38.2868 10.2809 38.1602 10.0807C38.1147 10.0086 38.0702 9.93577 38.0238 9.86426C37.3718 8.86208 36.6311 7.92538 35.8163 7.06157C34.283 5.4361 32.4826 4.07329 30.4841 3.05011C30.4476 3.03141 29.6852 2.64685 29.5113 2.56971C29.3203 2.48603 29.1023 2.39465 28.8558 2.29864C28.7434 2.25487 28.2216 2.05363 28.063 1.99816C27.9841 1.97056 27.905 1.94301 27.8256 1.9164C27.6231 1.84851 27.419 1.7842 27.2137 1.72289C27.1309 1.69822 27.0477 1.6744 26.9645 1.65083C31.0127 4.79854 33.6252 9.76256 33.6252 15.3484Z" fill="#1E0342"/>
<path d="M16.5897 9.23102C8.87643 9.23102 2.48019 14.9669 1.29031 22.4767C1.15972 23.3009 1.09082 24.1461 1.09082 25.0078C1.09082 25.6486 1.13071 26.2798 1.20375 26.9006C1.31015 27.4244 1.43478 27.9414 1.57742 28.4507C1.65203 28.7045 1.73021 28.9568 1.81418 29.2063C1.91548 29.5293 2.02374 29.8482 2.13587 30.1646C2.56608 31.3786 3.07081 32.5444 3.62308 33.6514C4.85402 36.1186 6.3172 38.2945 7.70045 40.061C8.18002 40.6878 8.65516 41.2553 9.11042 41.7631C9.11163 41.7644 9.11287 41.7659 9.11407 41.7673C10.7574 43.6392 12.0563 44.6508 12.435 44.9302L12.6319 45.08V45.001L12.6319 41.9718V41.5645L12.6319 40.2647L12.6319 37.6176L12.6318 32.5839V32.073L12.6318 25.0438L12.6318 21.1093C12.6318 20.3256 12.7342 19.6533 12.8138 19.247C13.7336 15.0714 17.3899 11.9485 21.7696 11.9485C24.6001 11.9485 27.1274 13.2539 28.8102 15.3037C25.9736 11.6076 21.5545 9.23102 16.5897 9.23102Z" fill="#3365AE"/>
<path d="M26.964 1.65082C26.9556 1.64843 26.9472 1.6459 26.9388 1.64352C26.7434 1.58832 26.547 1.53574 26.3491 1.48658C26.2396 1.45947 26.1293 1.43427 26.019 1.40903C25.8354 1.36683 25.6513 1.32593 25.4657 1.28907C25.3329 1.26277 25.199 1.23978 25.0652 1.21624C24.8979 1.18669 24.7307 1.15683 24.5619 1.13164C24.3989 1.10744 24.2345 1.08811 24.0702 1.06803C23.9258 1.05025 23.7819 1.03055 23.6364 1.01604C23.4283 0.995399 23.2184 0.981376 23.0084 0.967427C22.9076 0.960688 22.8074 0.951254 22.7063 0.945734C22.3718 0.929197 22.0353 0.920415 21.6969 0.919998C21.5291 0.920244 21.362 0.92279 21.1953 0.927347C19.9297 0.960314 18.634 1.10975 17.3833 1.36751C16.211 1.61543 15.0747 1.96286 13.9831 2.40086C12.8831 2.84222 11.8304 3.37821 10.8302 3.9937C4.78323 7.84041 0.759766 14.6762 0.759766 22.4697C0.759766 23.988 0.912913 25.4699 1.2035 26.9006C1.13046 26.2798 1.09057 25.6486 1.09057 25.0078C1.09057 24.1461 1.15947 23.3009 1.29006 22.4767C2.47994 14.9669 8.87618 9.23102 16.5894 9.23102C21.5542 9.23102 25.9734 11.6076 28.81 15.3037C29.1153 15.7016 29.4023 16.1147 29.6697 16.5419C30.167 17.3976 30.536 18.34 30.7457 19.3428L30.7452 19.3431C30.7452 19.3431 30.7469 19.3498 30.7492 19.3596C30.8179 19.691 30.8705 20.0282 30.9037 20.3715C30.9361 20.7214 30.9559 21.1458 30.9406 21.6217C30.9385 21.6875 30.9356 21.7542 30.9321 21.8218C30.9272 21.9119 30.922 22.0018 30.9147 22.0912C30.9059 22.2025 30.8943 22.3164 30.8811 22.4317C30.8756 22.4777 30.8706 22.5238 30.8646 22.5696C30.7872 23.152 30.6559 23.7166 30.4784 24.2598C30.4658 24.2981 30.4543 24.3361 30.441 24.3744C29.9072 25.94 28.9769 27.3162 27.7717 28.3787C29.5063 26.8503 30.9324 24.9688 31.9426 22.8443C33.0203 20.578 33.6247 18.0351 33.6247 15.3484C33.6247 9.76254 31.0123 4.79853 26.964 1.65082ZM20.3038 7.62559C20.3035 7.62548 20.3031 7.62538 20.3027 7.62526C20.3432 7.63784 20.3843 7.64882 20.4246 7.66176C20.3847 7.64893 20.3439 7.63807 20.3038 7.62559Z" fill="#ABE0FF"/>
</g>
<defs>
<clipPath id="clip0_2265_387">
<rect width="40.48" height="44.16" fill="white" transform="translate(0.759766 0.919998)"/>
</clipPath>
</defs>
</svg>
